<mxfile host="app.diagrams.net" agent="Mozilla/5.0 (Macintosh; Intel Mac OS X 10_15_7) AppleWebKit/537.36 (KHTML, like Gecko) Chrome/131.0.0.0 Safari/537.36" version="25.0.3">
  <diagram name="Page-1" id="wZKpR0ADGOxf-cnX8LAV">
    <mxGraphModel dx="1533" dy="1978" grid="1" gridSize="10" guides="1" tooltips="1" connect="1" arrows="1" fold="1" page="1" pageScale="1" pageWidth="850" pageHeight="1100" math="0" shadow="0">
      <root>
        <mxCell id="0" />
        <mxCell id="1" parent="0" />
        <mxCell id="facUj9hmxvYS1knWhMcW-2" value="Radnik servisa" style="swimlane;horizontal=0;whiteSpace=wrap;html=1;" parent="1" vertex="1">
          <mxGeometry y="360" width="3320" height="352.5" as="geometry" />
        </mxCell>
        <mxCell id="facUj9hmxvYS1knWhMcW-5" value="Slanje slobodnih termina u traženom periodu" style="rounded=1;whiteSpace=wrap;html=1;" parent="facUj9hmxvYS1knWhMcW-2" vertex="1">
          <mxGeometry x="35" y="140" width="130" height="80" as="geometry" />
        </mxCell>
        <mxCell id="facUj9hmxvYS1knWhMcW-15" value="" style="edgeStyle=orthogonalEdgeStyle;rounded=0;orthogonalLoop=1;jettySize=auto;html=1;" parent="facUj9hmxvYS1knWhMcW-2" source="facUj9hmxvYS1knWhMcW-10" target="facUj9hmxvYS1knWhMcW-14" edge="1">
          <mxGeometry relative="1" as="geometry" />
        </mxCell>
        <mxCell id="facUj9hmxvYS1knWhMcW-10" value="Zakazivanje termina" style="rounded=1;whiteSpace=wrap;html=1;" parent="facUj9hmxvYS1knWhMcW-2" vertex="1">
          <mxGeometry x="280" y="60" width="130" height="80" as="geometry" />
        </mxCell>
        <mxCell id="facUj9hmxvYS1knWhMcW-14" value="Slanje potvrde o zakazanom terminu servisa" style="rounded=1;whiteSpace=wrap;html=1;" parent="facUj9hmxvYS1knWhMcW-2" vertex="1">
          <mxGeometry x="500" y="60" width="130" height="80" as="geometry" />
        </mxCell>
        <mxCell id="facUj9hmxvYS1knWhMcW-22" value="Beleženje informacija o vozilu..." style="rounded=1;whiteSpace=wrap;html=1;" parent="facUj9hmxvYS1knWhMcW-2" vertex="1">
          <mxGeometry x="720" y="50" width="130" height="80" as="geometry" />
        </mxCell>
        <mxCell id="facUj9hmxvYS1knWhMcW-26" value="" style="edgeStyle=orthogonalEdgeStyle;rounded=0;orthogonalLoop=1;jettySize=auto;html=1;" parent="facUj9hmxvYS1knWhMcW-2" source="facUj9hmxvYS1knWhMcW-24" target="facUj9hmxvYS1knWhMcW-5" edge="1">
          <mxGeometry relative="1" as="geometry" />
        </mxCell>
        <mxCell id="S1uxRP6Y9a0yCJ43lqCC-81" style="edgeStyle=orthogonalEdgeStyle;rounded=0;orthogonalLoop=1;jettySize=auto;html=1;entryX=1;entryY=0.5;entryDx=0;entryDy=0;" edge="1" parent="facUj9hmxvYS1knWhMcW-2" source="facUj9hmxvYS1knWhMcW-24" target="facUj9hmxvYS1knWhMcW-4">
          <mxGeometry relative="1" as="geometry">
            <Array as="points">
              <mxPoint x="185" y="60" />
              <mxPoint x="185" y="-170" />
            </Array>
          </mxGeometry>
        </mxCell>
        <mxCell id="facUj9hmxvYS1knWhMcW-24" value="Ima slobodnih termina?" style="rhombus;whiteSpace=wrap;html=1;rounded=1;" parent="facUj9hmxvYS1knWhMcW-2" vertex="1">
          <mxGeometry x="50" y="10" width="100" height="100" as="geometry" />
        </mxCell>
        <mxCell id="S1uxRP6Y9a0yCJ43lqCC-4" value="" style="edgeStyle=orthogonalEdgeStyle;rounded=0;orthogonalLoop=1;jettySize=auto;html=1;" edge="1" parent="facUj9hmxvYS1knWhMcW-2" source="S1uxRP6Y9a0yCJ43lqCC-1" target="S1uxRP6Y9a0yCJ43lqCC-3">
          <mxGeometry relative="1" as="geometry" />
        </mxCell>
        <mxCell id="S1uxRP6Y9a0yCJ43lqCC-1" value="Sastavljanje spiska potrebnih delova" style="rounded=1;whiteSpace=wrap;html=1;" vertex="1" parent="facUj9hmxvYS1knWhMcW-2">
          <mxGeometry x="1050" y="50" width="130" height="80" as="geometry" />
        </mxCell>
        <mxCell id="S1uxRP6Y9a0yCJ43lqCC-6" value="" style="edgeStyle=orthogonalEdgeStyle;rounded=0;orthogonalLoop=1;jettySize=auto;html=1;" edge="1" parent="facUj9hmxvYS1knWhMcW-2" source="S1uxRP6Y9a0yCJ43lqCC-3" target="S1uxRP6Y9a0yCJ43lqCC-5">
          <mxGeometry relative="1" as="geometry" />
        </mxCell>
        <mxCell id="S1uxRP6Y9a0yCJ43lqCC-11" style="edgeStyle=orthogonalEdgeStyle;rounded=0;orthogonalLoop=1;jettySize=auto;html=1;entryX=0;entryY=0.75;entryDx=0;entryDy=0;" edge="1" parent="facUj9hmxvYS1knWhMcW-2" source="S1uxRP6Y9a0yCJ43lqCC-3" target="S1uxRP6Y9a0yCJ43lqCC-10">
          <mxGeometry relative="1" as="geometry">
            <Array as="points">
              <mxPoint x="1276" y="195" />
            </Array>
          </mxGeometry>
        </mxCell>
        <mxCell id="S1uxRP6Y9a0yCJ43lqCC-3" value="Svi delovi dostupni odmah?" style="rhombus;whiteSpace=wrap;html=1;rounded=1;" vertex="1" parent="facUj9hmxvYS1knWhMcW-2">
          <mxGeometry x="1218" y="35" width="115" height="110" as="geometry" />
        </mxCell>
        <mxCell id="S1uxRP6Y9a0yCJ43lqCC-8" value="" style="edgeStyle=orthogonalEdgeStyle;rounded=0;orthogonalLoop=1;jettySize=auto;html=1;" edge="1" parent="facUj9hmxvYS1knWhMcW-2" source="S1uxRP6Y9a0yCJ43lqCC-5" target="S1uxRP6Y9a0yCJ43lqCC-7">
          <mxGeometry relative="1" as="geometry" />
        </mxCell>
        <mxCell id="S1uxRP6Y9a0yCJ43lqCC-5" value="Računanje preliminarnog računa" style="whiteSpace=wrap;html=1;rounded=1;" vertex="1" parent="facUj9hmxvYS1knWhMcW-2">
          <mxGeometry x="1390" y="60" width="120" height="60" as="geometry" />
        </mxCell>
        <mxCell id="S1uxRP6Y9a0yCJ43lqCC-7" value="Prosleđivanje preliminarnog računa sa spiskom delova" style="whiteSpace=wrap;html=1;rounded=1;" vertex="1" parent="facUj9hmxvYS1knWhMcW-2">
          <mxGeometry x="1590" y="40" width="150" height="100" as="geometry" />
        </mxCell>
        <mxCell id="S1uxRP6Y9a0yCJ43lqCC-10" value="Prosleđivanje potencijalnog vremena čekanja na delove" style="whiteSpace=wrap;html=1;rounded=1;" vertex="1" parent="facUj9hmxvYS1knWhMcW-2">
          <mxGeometry x="1390" y="150" width="120" height="60" as="geometry" />
        </mxCell>
        <mxCell id="facUj9hmxvYS1knWhMcW-1" value="Klijent" style="swimlane;horizontal=0;whiteSpace=wrap;html=1;" parent="facUj9hmxvYS1knWhMcW-2" vertex="1">
          <mxGeometry y="-280" width="3320" height="280" as="geometry" />
        </mxCell>
        <mxCell id="facUj9hmxvYS1knWhMcW-4" value="Slanje zahteva za zakazivanje termina u određenom periodu" style="rounded=1;whiteSpace=wrap;html=1;" parent="facUj9hmxvYS1knWhMcW-1" vertex="1">
          <mxGeometry x="35" y="70" width="130" height="80" as="geometry" />
        </mxCell>
        <mxCell id="facUj9hmxvYS1knWhMcW-6" value="Biranje željenog termina od dostupnih" style="rounded=1;whiteSpace=wrap;html=1;" parent="facUj9hmxvYS1knWhMcW-1" vertex="1">
          <mxGeometry x="230" y="75" width="130" height="70" as="geometry" />
        </mxCell>
        <mxCell id="facUj9hmxvYS1knWhMcW-19" value="" style="edgeStyle=orthogonalEdgeStyle;rounded=0;orthogonalLoop=1;jettySize=auto;html=1;" parent="facUj9hmxvYS1knWhMcW-1" source="facUj9hmxvYS1knWhMcW-16" target="facUj9hmxvYS1knWhMcW-18" edge="1">
          <mxGeometry relative="1" as="geometry" />
        </mxCell>
        <mxCell id="facUj9hmxvYS1knWhMcW-16" value="Prijem potvrde" style="rounded=1;whiteSpace=wrap;html=1;" parent="facUj9hmxvYS1knWhMcW-1" vertex="1">
          <mxGeometry x="500" y="75" width="130" height="80" as="geometry" />
        </mxCell>
        <mxCell id="ShJnebFxyu8DqBPagoaD-1" style="edgeStyle=orthogonalEdgeStyle;rounded=0;orthogonalLoop=1;jettySize=auto;html=1;" parent="facUj9hmxvYS1knWhMcW-1" source="facUj9hmxvYS1knWhMcW-18" edge="1">
          <mxGeometry relative="1" as="geometry">
            <mxPoint x="782.5" y="330" as="targetPoint" />
          </mxGeometry>
        </mxCell>
        <mxCell id="facUj9hmxvYS1knWhMcW-18" value="Odlazak na servis u zakazanom terminu" style="whiteSpace=wrap;html=1;rounded=1;" parent="facUj9hmxvYS1knWhMcW-1" vertex="1">
          <mxGeometry x="715" y="77.5" width="135" height="75" as="geometry" />
        </mxCell>
        <mxCell id="S1uxRP6Y9a0yCJ43lqCC-89" value="" style="edgeStyle=orthogonalEdgeStyle;rounded=0;orthogonalLoop=1;jettySize=auto;html=1;" edge="1" parent="facUj9hmxvYS1knWhMcW-1" source="S1uxRP6Y9a0yCJ43lqCC-31" target="S1uxRP6Y9a0yCJ43lqCC-88">
          <mxGeometry relative="1" as="geometry" />
        </mxCell>
        <mxCell id="S1uxRP6Y9a0yCJ43lqCC-31" value="Odgovara vreme čekanja?" style="rhombus;whiteSpace=wrap;html=1;rounded=1;" vertex="1" parent="facUj9hmxvYS1knWhMcW-1">
          <mxGeometry x="1500" y="100" width="110" height="100" as="geometry" />
        </mxCell>
        <mxCell id="S1uxRP6Y9a0yCJ43lqCC-42" value="" style="edgeStyle=orthogonalEdgeStyle;rounded=0;orthogonalLoop=1;jettySize=auto;html=1;" edge="1" parent="facUj9hmxvYS1knWhMcW-1" source="S1uxRP6Y9a0yCJ43lqCC-35" target="S1uxRP6Y9a0yCJ43lqCC-41">
          <mxGeometry relative="1" as="geometry" />
        </mxCell>
        <mxCell id="S1uxRP6Y9a0yCJ43lqCC-35" value="Prijem preliminarnog računa" style="whiteSpace=wrap;html=1;rounded=1;" vertex="1" parent="facUj9hmxvYS1knWhMcW-1">
          <mxGeometry x="1790" y="120" width="120" height="60" as="geometry" />
        </mxCell>
        <mxCell id="S1uxRP6Y9a0yCJ43lqCC-41" value="Odgovaraju uslovi?" style="rhombus;whiteSpace=wrap;html=1;rounded=1;" vertex="1" parent="facUj9hmxvYS1knWhMcW-1">
          <mxGeometry x="2010" y="105" width="90" height="90" as="geometry" />
        </mxCell>
        <mxCell id="S1uxRP6Y9a0yCJ43lqCC-60" value="" style="edgeStyle=orthogonalEdgeStyle;rounded=0;orthogonalLoop=1;jettySize=auto;html=1;" edge="1" parent="facUj9hmxvYS1knWhMcW-1" source="S1uxRP6Y9a0yCJ43lqCC-57" target="S1uxRP6Y9a0yCJ43lqCC-59">
          <mxGeometry relative="1" as="geometry" />
        </mxCell>
        <mxCell id="S1uxRP6Y9a0yCJ43lqCC-57" value="Način plaćanja?" style="rhombus;whiteSpace=wrap;html=1;rounded=1;" vertex="1" parent="facUj9hmxvYS1knWhMcW-1">
          <mxGeometry x="2760" y="115" width="100" height="95" as="geometry" />
        </mxCell>
        <mxCell id="S1uxRP6Y9a0yCJ43lqCC-63" value="" style="edgeStyle=orthogonalEdgeStyle;rounded=0;orthogonalLoop=1;jettySize=auto;html=1;" edge="1" parent="facUj9hmxvYS1knWhMcW-1" source="S1uxRP6Y9a0yCJ43lqCC-59" target="S1uxRP6Y9a0yCJ43lqCC-62">
          <mxGeometry relative="1" as="geometry" />
        </mxCell>
        <mxCell id="S1uxRP6Y9a0yCJ43lqCC-59" value="Valuta?" style="rhombus;whiteSpace=wrap;html=1;rounded=1;" vertex="1" parent="facUj9hmxvYS1knWhMcW-1">
          <mxGeometry x="2950" y="122.5" width="80" height="80" as="geometry" />
        </mxCell>
        <mxCell id="S1uxRP6Y9a0yCJ43lqCC-62" value="Konvertovanje novca" style="whiteSpace=wrap;html=1;rounded=1;" vertex="1" parent="facUj9hmxvYS1knWhMcW-1">
          <mxGeometry x="2930" y="292.5" width="120" height="60" as="geometry" />
        </mxCell>
        <mxCell id="S1uxRP6Y9a0yCJ43lqCC-68" value="dinari" style="text;html=1;align=center;verticalAlign=middle;resizable=0;points=[];autosize=1;strokeColor=none;fillColor=none;" vertex="1" parent="facUj9hmxvYS1knWhMcW-1">
          <mxGeometry x="3020" y="135" width="50" height="30" as="geometry" />
        </mxCell>
        <mxCell id="S1uxRP6Y9a0yCJ43lqCC-64" value="euri" style="text;html=1;align=center;verticalAlign=middle;resizable=0;points=[];autosize=1;strokeColor=none;fillColor=none;" vertex="1" parent="facUj9hmxvYS1knWhMcW-1">
          <mxGeometry x="2950" y="210" width="40" height="30" as="geometry" />
        </mxCell>
        <mxCell id="S1uxRP6Y9a0yCJ43lqCC-61" value="keš" style="text;html=1;align=center;verticalAlign=middle;resizable=0;points=[];autosize=1;strokeColor=none;fillColor=none;" vertex="1" parent="facUj9hmxvYS1knWhMcW-1">
          <mxGeometry x="2880" y="135" width="40" height="30" as="geometry" />
        </mxCell>
        <mxCell id="S1uxRP6Y9a0yCJ43lqCC-88" value="Dolazak u dogovorenom terminu" style="whiteSpace=wrap;html=1;rounded=1;" vertex="1" parent="facUj9hmxvYS1knWhMcW-1">
          <mxGeometry x="1330" y="120" width="120" height="60" as="geometry" />
        </mxCell>
        <mxCell id="facUj9hmxvYS1knWhMcW-25" value="" style="edgeStyle=orthogonalEdgeStyle;rounded=0;orthogonalLoop=1;jettySize=auto;html=1;" parent="facUj9hmxvYS1knWhMcW-2" source="facUj9hmxvYS1knWhMcW-4" target="facUj9hmxvYS1knWhMcW-24" edge="1">
          <mxGeometry relative="1" as="geometry" />
        </mxCell>
        <mxCell id="facUj9hmxvYS1knWhMcW-11" style="edgeStyle=orthogonalEdgeStyle;rounded=0;orthogonalLoop=1;jettySize=auto;html=1;entryX=0.4;entryY=-0.05;entryDx=0;entryDy=0;entryPerimeter=0;" parent="facUj9hmxvYS1knWhMcW-2" source="facUj9hmxvYS1knWhMcW-6" target="facUj9hmxvYS1knWhMcW-10" edge="1">
          <mxGeometry relative="1" as="geometry">
            <Array as="points">
              <mxPoint x="332" y="-90" />
              <mxPoint x="332" y="-90" />
            </Array>
          </mxGeometry>
        </mxCell>
        <mxCell id="facUj9hmxvYS1knWhMcW-7" style="edgeStyle=orthogonalEdgeStyle;rounded=0;orthogonalLoop=1;jettySize=auto;html=1;entryX=0.25;entryY=1;entryDx=0;entryDy=0;" parent="facUj9hmxvYS1knWhMcW-2" source="facUj9hmxvYS1knWhMcW-5" target="facUj9hmxvYS1knWhMcW-6" edge="1">
          <mxGeometry relative="1" as="geometry" />
        </mxCell>
        <mxCell id="facUj9hmxvYS1knWhMcW-17" style="edgeStyle=orthogonalEdgeStyle;rounded=0;orthogonalLoop=1;jettySize=auto;html=1;entryX=0.5;entryY=1;entryDx=0;entryDy=0;" parent="facUj9hmxvYS1knWhMcW-2" source="facUj9hmxvYS1knWhMcW-14" target="facUj9hmxvYS1knWhMcW-16" edge="1">
          <mxGeometry relative="1" as="geometry" />
        </mxCell>
        <mxCell id="S1uxRP6Y9a0yCJ43lqCC-32" value="" style="edgeStyle=orthogonalEdgeStyle;rounded=0;orthogonalLoop=1;jettySize=auto;html=1;" edge="1" parent="facUj9hmxvYS1knWhMcW-2" source="S1uxRP6Y9a0yCJ43lqCC-10" target="S1uxRP6Y9a0yCJ43lqCC-31">
          <mxGeometry relative="1" as="geometry">
            <Array as="points">
              <mxPoint x="1550" y="180" />
            </Array>
          </mxGeometry>
        </mxCell>
        <mxCell id="S1uxRP6Y9a0yCJ43lqCC-36" value="" style="edgeStyle=orthogonalEdgeStyle;rounded=0;orthogonalLoop=1;jettySize=auto;html=1;" edge="1" parent="facUj9hmxvYS1knWhMcW-2" source="S1uxRP6Y9a0yCJ43lqCC-7" target="S1uxRP6Y9a0yCJ43lqCC-35">
          <mxGeometry relative="1" as="geometry" />
        </mxCell>
        <mxCell id="S1uxRP6Y9a0yCJ43lqCC-49" value="" style="edgeStyle=orthogonalEdgeStyle;rounded=0;orthogonalLoop=1;jettySize=auto;html=1;" edge="1" parent="facUj9hmxvYS1knWhMcW-2" source="S1uxRP6Y9a0yCJ43lqCC-45" target="S1uxRP6Y9a0yCJ43lqCC-48">
          <mxGeometry relative="1" as="geometry" />
        </mxCell>
        <mxCell id="S1uxRP6Y9a0yCJ43lqCC-45" value="Izvršavanje usluga" style="whiteSpace=wrap;html=1;rounded=1;" vertex="1" parent="facUj9hmxvYS1knWhMcW-2">
          <mxGeometry x="1995" y="60" width="120" height="60" as="geometry" />
        </mxCell>
        <mxCell id="S1uxRP6Y9a0yCJ43lqCC-46" value="" style="edgeStyle=orthogonalEdgeStyle;rounded=0;orthogonalLoop=1;jettySize=auto;html=1;" edge="1" parent="facUj9hmxvYS1knWhMcW-2" source="S1uxRP6Y9a0yCJ43lqCC-41" target="S1uxRP6Y9a0yCJ43lqCC-45">
          <mxGeometry relative="1" as="geometry" />
        </mxCell>
        <mxCell id="S1uxRP6Y9a0yCJ43lqCC-51" value="" style="edgeStyle=orthogonalEdgeStyle;rounded=0;orthogonalLoop=1;jettySize=auto;html=1;" edge="1" parent="facUj9hmxvYS1knWhMcW-2" source="S1uxRP6Y9a0yCJ43lqCC-48">
          <mxGeometry relative="1" as="geometry">
            <mxPoint x="2395" y="90" as="targetPoint" />
          </mxGeometry>
        </mxCell>
        <mxCell id="S1uxRP6Y9a0yCJ43lqCC-48" value="Sastavljanje spiska svih izvršenih usluga" style="whiteSpace=wrap;html=1;rounded=1;" vertex="1" parent="facUj9hmxvYS1knWhMcW-2">
          <mxGeometry x="2195" y="60" width="120" height="60" as="geometry" />
        </mxCell>
        <mxCell id="S1uxRP6Y9a0yCJ43lqCC-54" value="" style="edgeStyle=orthogonalEdgeStyle;rounded=0;orthogonalLoop=1;jettySize=auto;html=1;" edge="1" parent="facUj9hmxvYS1knWhMcW-2" source="S1uxRP6Y9a0yCJ43lqCC-52" target="S1uxRP6Y9a0yCJ43lqCC-53">
          <mxGeometry relative="1" as="geometry" />
        </mxCell>
        <mxCell id="S1uxRP6Y9a0yCJ43lqCC-52" value="Računanje krajnjeg računa" style="whiteSpace=wrap;html=1;rounded=1;" vertex="1" parent="facUj9hmxvYS1knWhMcW-2">
          <mxGeometry x="2395" y="60" width="120" height="60" as="geometry" />
        </mxCell>
        <mxCell id="S1uxRP6Y9a0yCJ43lqCC-58" value="" style="edgeStyle=orthogonalEdgeStyle;rounded=0;orthogonalLoop=1;jettySize=auto;html=1;" edge="1" parent="facUj9hmxvYS1knWhMcW-2" source="S1uxRP6Y9a0yCJ43lqCC-53" target="S1uxRP6Y9a0yCJ43lqCC-57">
          <mxGeometry relative="1" as="geometry" />
        </mxCell>
        <mxCell id="S1uxRP6Y9a0yCJ43lqCC-53" value="Prosleđivanje krajnjeg računa" style="whiteSpace=wrap;html=1;rounded=1;" vertex="1" parent="facUj9hmxvYS1knWhMcW-2">
          <mxGeometry x="2595" y="60" width="120" height="60" as="geometry" />
        </mxCell>
        <mxCell id="S1uxRP6Y9a0yCJ43lqCC-77" style="edgeStyle=orthogonalEdgeStyle;rounded=0;orthogonalLoop=1;jettySize=auto;html=1;" edge="1" parent="facUj9hmxvYS1knWhMcW-2" source="S1uxRP6Y9a0yCJ43lqCC-65" target="S1uxRP6Y9a0yCJ43lqCC-75">
          <mxGeometry relative="1" as="geometry">
            <Array as="points">
              <mxPoint x="3000" y="240" />
            </Array>
          </mxGeometry>
        </mxCell>
        <mxCell id="S1uxRP6Y9a0yCJ43lqCC-65" value="Prijem uplate" style="whiteSpace=wrap;html=1;rounded=1;" vertex="1" parent="facUj9hmxvYS1knWhMcW-2">
          <mxGeometry x="2930" y="152.5" width="120" height="60" as="geometry" />
        </mxCell>
        <mxCell id="S1uxRP6Y9a0yCJ43lqCC-66" value="" style="edgeStyle=orthogonalEdgeStyle;rounded=0;orthogonalLoop=1;jettySize=auto;html=1;" edge="1" parent="facUj9hmxvYS1knWhMcW-2" source="S1uxRP6Y9a0yCJ43lqCC-62" target="S1uxRP6Y9a0yCJ43lqCC-65">
          <mxGeometry relative="1" as="geometry" />
        </mxCell>
        <mxCell id="S1uxRP6Y9a0yCJ43lqCC-67" style="edgeStyle=orthogonalEdgeStyle;rounded=0;orthogonalLoop=1;jettySize=auto;html=1;entryX=1;entryY=0.5;entryDx=0;entryDy=0;" edge="1" parent="facUj9hmxvYS1knWhMcW-2" source="S1uxRP6Y9a0yCJ43lqCC-59" target="S1uxRP6Y9a0yCJ43lqCC-65">
          <mxGeometry relative="1" as="geometry">
            <Array as="points">
              <mxPoint x="3070" y="-117" />
              <mxPoint x="3070" y="183" />
            </Array>
          </mxGeometry>
        </mxCell>
        <mxCell id="S1uxRP6Y9a0yCJ43lqCC-69" value="Pregled vozila" style="rounded=1;whiteSpace=wrap;html=1;" vertex="1" parent="facUj9hmxvYS1knWhMcW-2">
          <mxGeometry x="960" y="170" width="120" height="60" as="geometry" />
        </mxCell>
        <mxCell id="S1uxRP6Y9a0yCJ43lqCC-72" style="edgeStyle=orthogonalEdgeStyle;rounded=0;orthogonalLoop=1;jettySize=auto;html=1;entryX=0.554;entryY=1.019;entryDx=0;entryDy=0;entryPerimeter=0;" edge="1" parent="facUj9hmxvYS1knWhMcW-2" source="S1uxRP6Y9a0yCJ43lqCC-69" target="S1uxRP6Y9a0yCJ43lqCC-1">
          <mxGeometry relative="1" as="geometry">
            <Array as="points">
              <mxPoint x="1122" y="200" />
            </Array>
          </mxGeometry>
        </mxCell>
        <mxCell id="S1uxRP6Y9a0yCJ43lqCC-73" style="edgeStyle=orthogonalEdgeStyle;rounded=0;orthogonalLoop=1;jettySize=auto;html=1;entryX=0;entryY=0.5;entryDx=0;entryDy=0;" edge="1" parent="facUj9hmxvYS1knWhMcW-2" source="S1uxRP6Y9a0yCJ43lqCC-57" target="S1uxRP6Y9a0yCJ43lqCC-65">
          <mxGeometry relative="1" as="geometry">
            <Array as="points">
              <mxPoint x="2810" y="-180" />
              <mxPoint x="2880" y="-180" />
              <mxPoint x="2880" y="183" />
            </Array>
          </mxGeometry>
        </mxCell>
        <mxCell id="S1uxRP6Y9a0yCJ43lqCC-75" value="Registrovanje izvršenog servisa" style="whiteSpace=wrap;html=1;rounded=1;" vertex="1" parent="facUj9hmxvYS1knWhMcW-2">
          <mxGeometry x="3150" y="210" width="120" height="60" as="geometry" />
        </mxCell>
        <mxCell id="S1uxRP6Y9a0yCJ43lqCC-90" style="edgeStyle=orthogonalEdgeStyle;rounded=0;orthogonalLoop=1;jettySize=auto;html=1;entryX=0.5;entryY=0;entryDx=0;entryDy=0;" edge="1" parent="facUj9hmxvYS1knWhMcW-2" source="S1uxRP6Y9a0yCJ43lqCC-88" target="S1uxRP6Y9a0yCJ43lqCC-5">
          <mxGeometry relative="1" as="geometry" />
        </mxCell>
        <mxCell id="facUj9hmxvYS1knWhMcW-9" style="edgeStyle=orthogonalEdgeStyle;rounded=0;orthogonalLoop=1;jettySize=auto;html=1;entryX=0.5;entryY=0;entryDx=0;entryDy=0;" parent="1" source="facUj9hmxvYS1knWhMcW-3" target="facUj9hmxvYS1knWhMcW-4" edge="1">
          <mxGeometry relative="1" as="geometry" />
        </mxCell>
        <mxCell id="facUj9hmxvYS1knWhMcW-3" value="Start" style="ellipse;whiteSpace=wrap;html=1;" parent="1" vertex="1">
          <mxGeometry x="50" y="-20" width="100" height="60" as="geometry" />
        </mxCell>
        <mxCell id="facUj9hmxvYS1knWhMcW-27" value="da" style="text;html=1;align=center;verticalAlign=middle;resizable=0;points=[];autosize=1;strokeColor=none;fillColor=none;" parent="1" vertex="1">
          <mxGeometry x="70" y="468" width="40" height="30" as="geometry" />
        </mxCell>
        <mxCell id="ShJnebFxyu8DqBPagoaD-2" value="Saopštenje o željenoj usluzi" style="rounded=1;whiteSpace=wrap;html=1;" parent="1" vertex="1">
          <mxGeometry x="920" y="165" width="130" height="80" as="geometry" />
        </mxCell>
        <mxCell id="ShJnebFxyu8DqBPagoaD-3" style="edgeStyle=orthogonalEdgeStyle;rounded=0;orthogonalLoop=1;jettySize=auto;html=1;entryX=0.5;entryY=1;entryDx=0;entryDy=0;" parent="1" source="facUj9hmxvYS1knWhMcW-22" target="ShJnebFxyu8DqBPagoaD-2" edge="1">
          <mxGeometry relative="1" as="geometry" />
        </mxCell>
        <mxCell id="S1uxRP6Y9a0yCJ43lqCC-9" value="da" style="text;html=1;align=center;verticalAlign=middle;resizable=0;points=[];autosize=1;strokeColor=none;fillColor=none;" vertex="1" parent="1">
          <mxGeometry x="1340" y="418" width="40" height="30" as="geometry" />
        </mxCell>
        <mxCell id="S1uxRP6Y9a0yCJ43lqCC-12" value="ne" style="text;html=1;align=center;verticalAlign=middle;resizable=0;points=[];autosize=1;strokeColor=none;fillColor=none;" vertex="1" parent="1">
          <mxGeometry x="1310" y="528" width="40" height="30" as="geometry" />
        </mxCell>
        <mxCell id="S1uxRP6Y9a0yCJ43lqCC-47" value="da" style="text;html=1;align=center;verticalAlign=middle;resizable=0;points=[];autosize=1;strokeColor=none;fillColor=none;" vertex="1" parent="1">
          <mxGeometry x="2020" y="278" width="40" height="30" as="geometry" />
        </mxCell>
        <mxCell id="S1uxRP6Y9a0yCJ43lqCC-71" style="edgeStyle=orthogonalEdgeStyle;rounded=0;orthogonalLoop=1;jettySize=auto;html=1;entryX=0.583;entryY=0.008;entryDx=0;entryDy=0;entryPerimeter=0;" edge="1" parent="1" source="ShJnebFxyu8DqBPagoaD-2" target="S1uxRP6Y9a0yCJ43lqCC-69">
          <mxGeometry relative="1" as="geometry">
            <Array as="points">
              <mxPoint x="1010" y="388" />
              <mxPoint x="1030" y="388" />
            </Array>
          </mxGeometry>
        </mxCell>
        <mxCell id="S1uxRP6Y9a0yCJ43lqCC-74" value="kartica" style="text;html=1;align=center;verticalAlign=middle;resizable=0;points=[];autosize=1;strokeColor=none;fillColor=none;" vertex="1" parent="1">
          <mxGeometry x="2820" y="148" width="60" height="30" as="geometry" />
        </mxCell>
        <mxCell id="S1uxRP6Y9a0yCJ43lqCC-78" value="Kraj" style="ellipse;whiteSpace=wrap;html=1;" vertex="1" parent="1">
          <mxGeometry x="3160" y="730" width="100" height="60" as="geometry" />
        </mxCell>
        <mxCell id="S1uxRP6Y9a0yCJ43lqCC-80" style="edgeStyle=orthogonalEdgeStyle;rounded=0;orthogonalLoop=1;jettySize=auto;html=1;" edge="1" parent="1" source="S1uxRP6Y9a0yCJ43lqCC-75" target="S1uxRP6Y9a0yCJ43lqCC-78">
          <mxGeometry relative="1" as="geometry" />
        </mxCell>
        <mxCell id="S1uxRP6Y9a0yCJ43lqCC-82" value="ne" style="text;html=1;align=center;verticalAlign=middle;resizable=0;points=[];autosize=1;strokeColor=none;fillColor=none;" vertex="1" parent="1">
          <mxGeometry x="140" y="388" width="40" height="30" as="geometry" />
        </mxCell>
        <mxCell id="S1uxRP6Y9a0yCJ43lqCC-84" style="edgeStyle=orthogonalEdgeStyle;rounded=0;orthogonalLoop=1;jettySize=auto;html=1;entryX=0;entryY=0.5;entryDx=0;entryDy=0;" edge="1" parent="1" source="S1uxRP6Y9a0yCJ43lqCC-31" target="S1uxRP6Y9a0yCJ43lqCC-78">
          <mxGeometry relative="1" as="geometry">
            <Array as="points">
              <mxPoint x="1770" y="230" />
              <mxPoint x="1770" y="760" />
            </Array>
          </mxGeometry>
        </mxCell>
        <mxCell id="S1uxRP6Y9a0yCJ43lqCC-85" value="ne" style="text;html=1;align=center;verticalAlign=middle;resizable=0;points=[];autosize=1;strokeColor=none;fillColor=none;" vertex="1" parent="1">
          <mxGeometry x="1610" y="198" width="40" height="30" as="geometry" />
        </mxCell>
        <mxCell id="S1uxRP6Y9a0yCJ43lqCC-86" style="edgeStyle=orthogonalEdgeStyle;rounded=0;orthogonalLoop=1;jettySize=auto;html=1;entryX=0.5;entryY=1;entryDx=0;entryDy=0;" edge="1" parent="1" source="S1uxRP6Y9a0yCJ43lqCC-41" target="S1uxRP6Y9a0yCJ43lqCC-78">
          <mxGeometry relative="1" as="geometry">
            <Array as="points">
              <mxPoint x="2160" y="230" />
              <mxPoint x="2160" y="810" />
              <mxPoint x="3210" y="810" />
            </Array>
          </mxGeometry>
        </mxCell>
        <mxCell id="S1uxRP6Y9a0yCJ43lqCC-87" value="ne" style="text;html=1;align=center;verticalAlign=middle;resizable=0;points=[];autosize=1;strokeColor=none;fillColor=none;" vertex="1" parent="1">
          <mxGeometry x="2100" y="208" width="40" height="30" as="geometry" />
        </mxCell>
        <mxCell id="S1uxRP6Y9a0yCJ43lqCC-91" value="da" style="text;html=1;align=center;verticalAlign=middle;resizable=0;points=[];autosize=1;strokeColor=none;fillColor=none;" vertex="1" parent="1">
          <mxGeometry x="1460" y="198" width="40" height="30" as="geometry" />
        </mxCell>
      </root>
    </mxGraphModel>
  </diagram>
</mxfile>
